<svg width="28" height="28" viewBox="0 0 28 28" fill="none" xmlns="http://www.w3.org/2000/svg">
<path d="M9.91683 22.1666H9.3335C4.66683 22.1666 2.3335 21 2.3335 15.1666V9.33331C2.3335 4.66665 4.66683 2.33331 9.3335 2.33331H18.6668C23.3335 2.33331 25.6668 4.66665 25.6668 9.33331V15.1666C25.6668 19.8333 23.3335 22.1666 18.6668 22.1666H18.0835C17.7218 22.1666 17.3718 22.3416 17.1502 22.6333L15.4002 24.9666C14.6302 25.9933 13.3702 25.9933 12.6002 24.9666L10.8502 22.6333C10.6635 22.3766 10.2318 22.1666 9.91683 22.1666Z" stroke="white" stroke-width="2.25" stroke-miterlimit="10" stroke-linecap="round" stroke-linejoin="round"/>
<path d="M18.6629 12.8334H18.6733" stroke="white" stroke-width="3" stroke-linecap="round" stroke-linejoin="round"/>
<path d="M13.9949 12.8334H14.0054" stroke="white" stroke-width="3" stroke-linecap="round" stroke-linejoin="round"/>
<path d="M9.32741 12.8334H9.33789" stroke="white" stroke-width="3" stroke-linecap="round" stroke-linejoin="round"/>
</svg>
