<svg width="24" height="24" viewBox="0 0 24 24" fill="none" xmlns="http://www.w3.org/2000/svg">
  <path
    d="M12 15.5C14.21 15.5 16 13.71 16 11.5V6C16 3.79 14.21 2 12 2C9.79 2 8 3.79 8 6V11.5C8 13.71 9.79 15.5 12 15.5Z"
    stroke="#1A71FF" strokeWidth="1.5" strokeLinecap="round" strokeLinejoin="round" />
  <path d="M4.34961 9.64999V11.35C4.34961 15.57 7.77961 19 11.9996 19C16.2196 19 19.6496 15.57 19.6496 11.35V9.64999"
    stroke="#1A71FF" strokeWidth="1.5" strokeLinecap="round" strokeLinejoin="round" />
  <path d="M10.6104 6.43C11.5104 6.1 12.4904 6.1 13.3904 6.43" stroke="#1A71FF" strokeWidth="1.5" strokeLinecap="round"
    strokeLinejoin="round" />
  <path d="M11.2002 8.55001C11.7302 8.41001 12.2802 8.41001 12.8102 8.55001" stroke="#1A71FF" strokeWidth="1.5"
    strokeLinecap="round" strokeLinejoin="round" />
  <path d="M12 19V22" stroke="#1A71FF" strokeWidth="1.5" strokeLinecap="round" strokeLinejoin="round" />
</svg>