<svg width="24" height="24" viewBox="0 0 24 24" fill="none" xmlns="http://www.w3.org/2000/svg">
  <path d="M16 6.3V6C16 3.79 14.21 2 12 2C9.79 2 8 3.79 8 6V11" stroke="#EE6E6E" stroke-width="1.5"
    stroke-linecap="round" stroke-linejoin="round" />
  <path d="M9.04004 14.19C9.77004 15 10.83 15.5 12 15.5C14.21 15.5 16 13.71 16 11.5V11" stroke="#EE6E6E"
    stroke-width="1.5" stroke-linecap="round" stroke-linejoin="round" />
  <path d="M6.78027 16.95C8.15027 18.22 9.98027 19 12.0003 19C16.2203 19 19.6503 15.57 19.6503 11.35V9.65"
    stroke="#EE6E6E" stroke-width="1.5" stroke-linecap="round" stroke-linejoin="round" />
  <path d="M4.34961 9.65V11.35C4.34961 12.41 4.55961 13.41 4.94961 14.33" stroke="#EE6E6E" stroke-width="1.5"
    stroke-linecap="round" stroke-linejoin="round" />
  <path d="M20.0697 2.84L3.92969 18.99" stroke="#EE6E6E" stroke-width="1.5" stroke-linecap="round"
    stroke-linejoin="round" />
  <path d="M11 3V6" stroke="#EE6E6E" stroke-width="1.5" stroke-linecap="round" stroke-linejoin="round" />
  <path d="M12 19V22" stroke="#EE6E6E" stroke-width="1.5" stroke-linecap="round" stroke-linejoin="round" />
</svg>