<svg width="28" height="28" viewBox="0 0 28 28" fill="none" xmlns="http://www.w3.org/2000/svg">
<path d="M14.6185 23.8233H7.24516C3.5585 23.8233 2.3335 21.3733 2.3335 18.9116V9.0883C2.3335 5.40164 3.5585 4.17664 7.24516 4.17664H14.6185C18.3052 4.17664 19.5302 5.40164 19.5302 9.0883V18.9116C19.5302 22.5983 18.2935 23.8233 14.6185 23.8233Z" stroke="white" stroke-width="2.25" stroke-linecap="round" stroke-linejoin="round"/>
<path d="M22.7736 19.95L19.5303 17.675V10.3133L22.7736 8.0383C24.3603 6.92997 25.6669 7.60664 25.6669 9.55497V18.445C25.6669 20.3933 24.3603 21.07 22.7736 19.95Z" stroke="white" stroke-width="2.25" stroke-linecap="round" stroke-linejoin="round"/>
<path d="M13.417 12.8334C14.3835 12.8334 15.167 12.0499 15.167 11.0834C15.167 10.1169 14.3835 9.33337 13.417 9.33337C12.4505 9.33337 11.667 10.1169 11.667 11.0834C11.667 12.0499 12.4505 12.8334 13.417 12.8334Z" stroke="white" stroke-width="2.25" stroke-linecap="round" stroke-linejoin="round"/>
</svg>
