<svg width="24" height="24" viewBox="0 0 24 24" fill="none" xmlns="http://www.w3.org/2000/svg">
<path d="M12.53 20.42H6.21C3.05 20.42 2 18.32 2 16.21V7.79C2 4.63 3.05 3.58 6.21 3.58H12.53C15.69 3.58 16.74 4.63 16.74 7.79V16.21C16.74 19.37 15.68 20.42 12.53 20.42Z" stroke="#1A71FF" stroke-width="1.5" stroke-linecap="round" stroke-linejoin="round"/>
<path d="M19.5202 17.1L16.7402 15.15V8.84L19.5202 6.89C20.8802 5.94 22.0002 6.52 22.0002 8.19V15.81C22.0002 17.48 20.8802 18.06 19.5202 17.1Z" stroke="#1A71FF" stroke-width="1.5" stroke-linecap="round" stroke-linejoin="round"/>
<path d="M11.5 11C12.3284 11 13 10.3284 13 9.5C13 8.67157 12.3284 8 11.5 8C10.6716 8 10 8.67157 10 9.5C10 10.3284 10.6716 11 11.5 11Z" stroke="#1A71FF" stroke-width="1.5" stroke-linecap="round" stroke-linejoin="round"/>
</svg>
